<?xml version="1.0" encoding="UTF-8" standalone="no"?>
<!-- Created with Inkscape (http://www.inkscape.org/) -->

<svg
   version="1.1"
   id="svg1415"
   width="257.11853"
   height="263.7688"
   viewBox="0 0 257.11853 263.7688"
   sodipodi:docname="logo.svg"
   inkscape:version="1.1.1 (c3084ef, 2021-09-22)"
   xmlns:inkscape="http://www.inkscape.org/namespaces/inkscape"
   xmlns:sodipodi="http://sodipodi.sourceforge.net/DTD/sodipodi-0.dtd"
   xmlns="http://www.w3.org/2000/svg"
   xmlns:svg="http://www.w3.org/2000/svg">
  <sodipodi:namedview
     id="namedview64"
     pagecolor="#ffffff"
     bordercolor="#666666"
     borderopacity="1.0"
     inkscape:pageshadow="2"
     inkscape:pageopacity="0.0"
     inkscape:pagecheckerboard="0"
     showgrid="false"
     fit-margin-top="0"
     fit-margin-left="0"
     fit-margin-right="0"
     fit-margin-bottom="0"
     inkscape:zoom="2.3807947"
     inkscape:cx="31.7121"
     inkscape:cy="138.39917"
     inkscape:window-width="1296"
     inkscape:window-height="969"
     inkscape:window-x="0"
     inkscape:window-y="23"
     inkscape:window-maximized="0"
     inkscape:current-layer="svg1415" />
  <defs
     id="defs1419" />
  <g
     id="g1421"
     transform="translate(-25.851736,-17.574603)">
    <path
       style="fill:#ffffff"
       d="M 134.55383,280.62355 C 106.44139,276.21961 81.487837,263.43767 61.533677,243.22049 43.835667,225.2892 31.042177,199.97802 26.961053,174.82056 25.140834,163.6001 25.616829,143.50451 27.976778,131.93861 32.888867,107.86489 42.398727,89.522922 58.777217,72.532832 c 18.9677,-19.67599 38.446338,-30.14003 65.071493,-34.956804 5.67327,-1.026356 10.84827,-2.212072 11.5,-2.634925 0.65174,-0.422852 -3.2791,-0.993823 -8.73518,-1.268823 -11.09428,-0.559179 -12.3528,-1.447769 -7.90568,-5.581879 10.35636,-9.627408 31.7237,-13.136259 51.5371,-8.463194 19.33586,4.560433 28.96605,8.307558 43.28873,16.84373 61.03979,36.379095 85.38964,106.076153 58.69327,167.998943 -7.8684,18.2509 -25.5156,40.47975 -41.19327,51.88803 -14.20154,10.33414 -32.22517,18.60609 -48.92297,22.45322 -9.91404,2.28416 -37.76901,3.34574 -47.55688,1.81242 z m 30.47985,-4.95127 c 0,-0.55 -0.675,-1 -1.5,-1 -0.825,0 -1.5,0.45 -1.5,1 0,0.55 0.675,1 1.5,1 0.825,0 1.5,-0.45 1.5,-1 z m 19.43524,-0.89522 c 0.97591,-1.57905 -2.17559,-2.01685 -4.08804,-0.5679 -1.73042,1.31104 -1.67708,1.40152 0.84378,1.43132 1.48004,0.0175 2.93996,-0.37105 3.24426,-0.86342 z m -24.96625,-1.05461 c 0.63153,-1.02183 -2.49352,-3.05999 -4.65325,-3.03486 -0.72366,0.008 -1.99074,0.45842 -2.81574,1 -1.33333,0.87528 -1.33333,1.0941 0,1.96938 1.92118,1.26117 6.7041,1.30311 7.46899,0.0655 z m 17.59426,-0.62639 c 1.79743,-2.16576 -0.52573,-3.66882 -4.532,-2.93216 -3.50457,0.6444 -5.01795,1.91186 -4.0851,3.42125 1.01807,1.64728 7.13208,1.30026 8.6171,-0.48909 z m -33.06325,-1.40473 c 0,-1.2475 -4.53723,-2.42309 -5.95948,-1.54409 -0.59023,0.36478 -0.81425,1.08214 -0.49781,1.59414 0.76803,1.2427 6.45729,1.19861 6.45729,-0.05 z m 21.45729,-0.94995 c 0.31644,-0.512 0.0964,-1.22687 -0.48887,-1.58861 -1.47996,-0.91467 -4.23206,0.28391 -3.47279,1.51245 0.7816,1.26464 3.19842,1.31111 3.96166,0.0762 z m 29.42264,-1.44129 c 1.96056,-2.08692 2.03181,-2.4477 0.59253,-3 -3.02461,-1.16066 -6.18482,-0.6419 -8.84713,1.45226 -3.32628,2.61646 -2.57499,3.91993 2.25937,3.91993 2.6707,0 4.41511,-0.69023 5.99523,-2.37219 z m -63.42443,0.44419 c 0.31545,-0.51041 -0.36691,-1.22649 -1.51634,-1.59131 -2.37399,-0.75348 -3.45316,-0.12137 -2.48028,1.45278 0.81134,1.31277 3.21932,1.39623 3.99662,0.13853 z m 17.5445,-0.072 c 0,-0.55 -0.70156,-1 -1.55902,-1 -0.85746,0 -1.2809,0.45 -0.94098,1 0.33992,0.55 1.04148,1 1.55902,1 0.51754,0 0.94098,-0.45 0.94098,-1 z m 52.41821,0.39301 c 0.86999,-0.33384 1.58179,-1.04014 1.58179,-1.56955 0,-1.39049 -4.26568,-0.55929 -4.75501,0.92654 -0.4483,1.36128 0.69678,1.59331 3.17322,0.64301 z m -80.98297,-2.28823 c 0.61593,-0.99659 -1.70043,-2.12191 -4.26703,-2.07298 -1.43904,0.0274 -1.40155,0.2335 0.27292,1.5 2.23696,1.69195 3.21577,1.83237 3.99411,0.57298 z m 15.56476,0.45424 c 0,-0.24254 -0.45,-0.7191 -1,-1.05902 -0.55,-0.33992 -1,-0.14148 -1,0.44098 0,0.58246 0.45,1.05902 1,1.05902 0.55,0 1,-0.19844 1,-0.44098 z m 47.86888,-0.90103 c 0.61257,-0.7381 0.81767,-1.6381 0.45578,-2 -1.73111,-1.73111 -8.96897,0.49048 -7.79365,2.39218 0.8786,1.42162 6.06249,1.14456 7.33787,-0.39218 z m -11.86888,-0.65799 c 0,-0.55 -0.675,-1 -1.5,-1 -0.825,0 -1.5,0.45 -1.5,1 0,0.55 0.675,1 1.5,1 0.825,0 1.5,-0.45 1.5,-1 z m -62.5,-3 c -1.77582,-1.96226 -5.5,-2.77481 -5.5,-1.2 0,1.58562 2.44931,3.2 4.85499,3.2 2.39164,0 2.40829,-0.0516 0.64501,-2 z m 98.54282,0.97708 c 1.05124,-0.5626 2.38749,-1.9126 2.96945,-3 0.93883,-1.75422 0.73722,-1.97708 -1.78852,-1.97708 -2.77014,0 -7.22375,3.10663 -7.22375,5.03896 0,1.26667 3.62985,1.22951 6.04282,-0.0619 z m -9.26533,-1.53378 c 2.88046,-2.01756 2.82974,-3.4433 -0.1225,-3.4433 -2.86376,0 -6.49137,3.50676 -4.46612,4.31734 2.03972,0.81637 2.22583,0.78092 4.58862,-0.87404 z m -9.23637,-0.50983 c 0.92034,-1.48915 -0.14673,-2.29879 -2.06137,-1.56407 -0.88358,0.33906 -1.32643,1.06965 -0.98412,1.62354 0.81058,1.31154 2.21511,1.28411 3.04549,-0.0595 z m -18.53696,-1.37801 c 29.13991,-4.39284 54.56465,-18.91012 70.7604,-40.4035 17.61547,-23.37749 26.43009,-54.04917 23.34864,-81.24478 -3.77787,-33.34185 -22.19858,-63.622868 -49.54831,-81.450328 -21.77733,-14.19517 -37.95995,-17.70968 -64.30189,-13.96493 -5.63035,0.80041 -10.80535,1.27975 -11.5,1.06521 -0.69465,-0.21455 -2.55101,-0.67392 -4.12525,-1.02083 -2.82379,-0.62228 -2.83723,-0.65878 -1,-2.71697 l 1.86225,-2.08622 -5.96433,0.73218 c -13.24387,1.62581 -30.40212,9.3925 -45.721663,20.69591 -18.6916,13.79146 -35.37737,38.52841 -41.52492,61.561448 -2.26746,8.49547 -2.62136,11.87506 -2.69934,25.77735 -0.12263,21.86194 2.74941,35.19966 11.41259,53 21.55156,44.28226 68.032123,67.73914 119.001823,60.05546 z m -49.54287,-6.43393 c -7.54994,-3.4295 -14.50909,-13.66509 -14.43933,-21.23755 0.0616,-6.6877 6.6085,-14.57237 15.80769,-19.03782 7.5049,-3.64301 8.37365,-10.54005 0.99611,-7.90821 -1.82917,0.65254 -7.37576,1.60614 -12.32576,2.11912 -6.93396,0.71858 -10.56089,1.70101 -15.799465,4.27964 -6.196408,3.05011 -6.881058,3.19451 -7.719358,1.62812 -1.36737,-2.55494 8.622968,-7.55226 19.053673,-9.53093 24.80862,-4.70611 29.83361,-11.59401 30.35033,-41.6021 0.0632,-3.66751 0.18691,-6.59251 0.27502,-6.5 0.0881,0.0925 3.39367,8.0432 7.34568,17.6682 3.95201,9.625 7.50725,17.84233 7.90054,18.26074 0.39328,0.4184 3.83772,-6.7816 7.65432,-16 l 6.93926,-16.76074 0.68673,5 c 0.37771,2.75 1.12961,9.14531 1.67091,14.21181 0.58776,5.50141 1.71246,10.4447 2.79229,12.27271 3.56041,6.0273 12.98642,10.86415 26.35007,13.52126 4.675,0.92954 11.06098,3.04456 14.19108,4.70006 4.89621,2.5896 5.53916,3.25324 4.60343,4.75159 -1.00514,1.6095 -1.56301,1.49381 -7.35507,-1.52522 -3.98543,-2.07734 -8.39236,-3.48724 -12.10344,-3.87221 -3.2098,-0.33297 -8.75308,-1.25561 -12.31841,-2.0503 -4.04804,-0.90228 -6.83558,-1.09171 -7.42287,-0.50442 -1.77048,1.77048 1.23554,5.82468 7.10055,9.57648 l 5.7953,3.70721 -3.24791,1.53818 c -3.04476,1.44198 -3.49354,1.40013 -7.17529,-0.66913 -6.29592,-3.5385 -24.79605,-10.15802 -28.3895,-10.15802 -7.27652,0 -28.81724,9.31013 -34.87618,15.07386 -3.8969,3.70704 -4.04254,4.06779 -3.58105,8.87058 0.5671,5.90193 4.36601,12.22307 9.06938,15.09086 3.65661,2.22955 10.01911,2.55158 15.85677,0.80257 3.07347,-0.92083 4.39524,-0.88574 6.36602,0.16898 1.36795,0.73211 2.48719,1.669 2.48719,2.08198 0,1.09805 -13.1795,3.91482 -18.19741,3.88921 -2.36642,-0.0121 -6.12001,-0.84751 -8.3413,-1.85651 z m 41.67169,0.30321 c -5.52454,-1.48601 -21.74443,-8.98703 -22.66938,-10.48364 -0.28579,-0.46241 0.31113,-1.28536 1.3265,-1.82876 1.41688,-0.7583 3.82453,-0.0727 10.35531,2.94864 11.3081,5.23151 18.41246,6.63704 25.81704,5.10765 3.11187,-0.64275 7.37345,-1.16863 9.47019,-1.16863 3.43559,0 3.67665,0.16386 2.4398,1.65848 -4.13897,5.00158 -15.958,6.66629 -26.73946,3.76626 z m 28.86702,-8.0945 c -7.42455,-0.94632 -16.67029,-2.65351 -17.86178,-3.29812 -1.01542,-0.54935 -0.59682,-1.28144 1.64577,-2.87831 2.68454,-1.91156 3.57043,-2.03483 8.24828,-1.14769 6.98655,1.32497 16.87416,1.25916 21.06851,-0.14023 1.86957,-0.62376 4.74922,-2.38692 6.39922,-3.91814 2.85948,-2.65362 4.4603,-3.33066 7.25,-3.06623 4.00378,0.3795 -2.15366,8.21746 -8.99169,11.44574 -5.07674,2.39676 -12.57126,3.6641 -17.75831,3.00298 z m -94.252035,-1.75699 c -9.386748,-3.3498 -14.323928,-10.46447 -15.609228,-22.49351 -0.93684,-8.7678 -3.47721,-11.81071 -13.02696,-15.60404 -8.67183,-3.44459 -14.82321,-7.06799 -16.12331,-9.49724 -0.92461,-1.72766 -0.62291,-1.67012 2.55675,0.48766 1.98278,1.34555 7.28374,3.81736 11.77992,5.4929 16.10672,6.00231 19.67486,9.04194 19.67486,16.76061 0,9.40412 5.809568,18.02933 13.590943,20.17787 3.65372,1.00884 7.40906,3.67364 7.40906,5.25749 0,1.27396 -6.0072,0.93309 -10.252035,-0.58174 z m 60.252035,0.23018 c -2.46287,-0.92729 -2.47029,-0.96352 -0.5,-2.43967 3.81319,-2.85684 28.35651,-17.39743 32.66767,-19.35383 5.55603,-2.52132 8.26106,-2.5008 19.77098,0.15002 8.18241,1.88446 10.16914,2.02056 14.92718,1.02255 3.01869,-0.63318 7.23861,-2.30938 9.37759,-3.72489 3.34571,-2.21409 3.74339,-2.30148 2.84644,-0.62552 -1.50386,2.81 -9.76955,8.01698 -13.98361,8.809 -1.98344,0.37278 -6.75625,0.091 -10.60625,-0.62624 -16.54685,-3.0825 -17.58775,-2.84293 -35.01454,8.05876 -15.24502,9.53684 -16.20259,9.96585 -19.48546,8.72982 z m -38.00794,-1.81827 c -0.81578,-1.52429 -0.76348,-2.10404 0.21482,-2.38123 0.71121,-0.20152 6.01812,-1.88235 11.79312,-3.73517 10.68783,-3.42902 13.28096,-3.7104 15.69912,-1.70351 1.67281,1.38832 -2.92036,3.61787 -15.11809,7.3384 -9.89991,3.01966 -11.2039,3.06954 -12.58897,0.48151 z m 35.08615,-7.14682 c -5.45715,-2.34766 -15.13254,-8.12367 -20.93586,-12.49828 l -4.35764,-3.28484 2.59511,-1.18242 c 2.30903,-1.05206 3.50596,-0.70077 10.85765,3.1866 4.54439,2.40296 11.2966,5.96012 15.00492,7.90481 3.70831,1.94468 6.74581,3.86173 6.75,4.26011 0.004,0.39838 -1.22989,1.35251 -2.74239,2.1203 -2.43231,1.23471 -3.26082,1.17622 -7.17179,-0.50628 z m 36.63437,1.5409 c -1.4978,-1.4978 -0.69601,-6.31774 1.22168,-7.34406 4.00596,-2.14392 5.20378,-1.35373 4.87324,3.21482 -0.26831,3.70832 -0.6309,4.28771 -2.84492,4.54591 -1.39559,0.16275 -2.85809,-0.0247 -3.25,-0.41667 z m -64.66637,-2.17781 c -0.79958,-0.27718 -3.33401,-1.69636 -5.63206,-3.15374 -3.61813,-2.29455 -4.01173,-2.87754 -2.93597,-4.34874 0.68327,-0.93442 1.51501,-1.69895 1.84832,-1.69895 1.31083,0 12.69028,7.86797 11.95608,8.26666 -1.93135,1.04877 -3.89585,1.39946 -5.23637,0.93477 z m 31.58014,-7.48539 c -1.60091,-1.1706 -1.37501,-1.55503 2.55887,-4.35469 6.94863,-4.9452 8.36064,-5.48451 11.36695,-4.34152 l 2.68311,1.02012 -4.36764,3.32176 c -7.65434,5.82142 -9.39041,6.43895 -12.24129,4.35433 z m -84.175493,-2.63093 c -4.63773,-2.66015 -8.60283,-6.08511 -7.04479,-6.08511 2.07832,0 12.59393,6.27433 12.59393,7.5144 0,1.8742 0.38155,1.97248 -5.54914,-1.42929 z m 16.25094,2.28336 c -1.86927,-1.86927 -0.0901,-3.14585 6.548198,-4.69844 7.483015,-1.75016 10.750005,-2.08576 10.750005,-1.10429 0,2.48389 -2.47574,4.27174 -6.72218,4.85442 -2.627805,0.36057 -5.924515,0.87936 -7.326025,1.15285 -1.40151,0.27349 -2.864008,0.18145 -3.249998,-0.20454 z m 127.298203,-8.79174 c 0,-4.99349 3.75872,-8.879 11.23001,-11.60883 3.44849,-1.25999 8.64796,-3.15634 11.55438,-4.21411 2.90641,-1.05777 7.40641,-3.51632 10,-5.46344 l 4.71561,-3.54022 -4,4.21133 c -3.82191,4.02384 -10.133,7.908 -15.5,9.53948 -9.11164,2.76979 -13,6.37285 -13,12.04611 0,1.94981 -0.51279,2.45295 -2.5,2.45295 -2.1798,0 -2.5,-0.43845 -2.5,-3.42327 z m 27.22802,-29.26099 c -2.43922,-4.3386 -1.52364,-8.69832 2.87654,-13.69719 4.01047,-4.55613 6.89544,-11.43128 6.89544,-16.43247 0,-2.37777 -0.0889,-2.4156 -1.87611,-0.79819 -1.03187,0.93382 -2.13905,3.31809 -2.4604,5.29838 -0.9051,5.57743 -4.09966,8.32637 -9.5878,8.25034 -3.66384,-0.0507 -4.13972,-0.23902 -2.38795,-0.94474 1.33308,-0.53705 2.58399,-2.31645 3.20205,-4.55489 1.27091,-4.60287 3.77844,-7.43698 6.57999,-7.43698 2.56831,0 5.53022,-5.43295 5.53022,-10.14395 0,-4.67339 -5.7831,-14.68414 -10.15377,-17.57651 -2.06065,-1.36367 -4.33154,-2.26307 -5.04643,-1.99867 -0.80503,0.29774 -0.34817,0.86308 1.2002,1.48517 4.83535,1.94271 6.61693,5.39806 6.15552,11.93851 l -0.15552,2.20454 -2.3709,-2.20454 c -1.30399,-1.2125 -3.55399,-3.183 -5,-4.37888 -1.72522,-1.4268 -2.6291,-3.16298 -2.6291,-5.05 0,-1.58162 -0.54,-3.41567 -1.2,-4.07567 -1.47819,-1.47819 -14.59317,-1.60933 -18.34359,-0.18343 -2.32405,0.88361 -2.49799,1.2284 -1.32978,2.63601 0.73921,0.89069 3.15062,2.73751 5.35869,4.10405 2.20807,1.36655 5.13968,3.51633 6.51468,4.7773 1.375,1.26097 4.3,2.78157 6.5,3.37911 4.91685,1.33546 5.87383,1.96669 7.41412,4.89047 0.66744,1.26693 2.6473,3.17775 4.3997,4.24626 l 3.18618,1.94275 h -5 c -6.32271,0 -10.11594,-2.26065 -13.93673,-8.3059 -1.6152,-2.55557 -3.07639,-4.50683 -3.24709,-4.33614 -0.17069,0.1707 0.42065,2.45573 1.3141,5.07784 1.98936,5.83847 1.46603,16.55097 -1.04586,21.40843 -1.02653,1.98508 -3.11049,3.90294 -5.18105,4.76807 -2.56318,1.07097 -3.62093,2.23296 -4.06816,4.46911 l -0.60436,3.02184 -2.36543,-2.2222 c -4.91101,-4.61366 -1.17681,-12.85628 5.83913,-12.88888 4.33703,-0.0202 5.64147,-0.96098 6.76527,-4.87946 1.04092,-3.62947 -0.63856,-14.428 -2.10317,-13.52281 -0.47666,0.29459 -0.86665,1.31536 -0.86665,2.26839 0,2.71616 -8.03031,9.90274 -13,11.63412 -2.475,0.86226 -5.0625,2.3169 -5.75,3.23254 -1.12341,1.49619 -1.25,1.43785 -1.25,-0.576 0,-2.99578 2.53556,-7.74927 4.5448,-8.52029 0.89033,-0.34165 3.58145,-0.62118 5.98028,-0.62118 5.38798,0 7.47492,-2.4681 7.47492,-8.84015 0,-8.33515 -9.40965,-14.48199 -23.5,-15.35135 -5.58862,-0.34482 -5.42812,-0.89783 -2.34986,8.09673 2.5398,7.42119 2.34602,9.57692 -1.31966,14.68129 -3.47484,4.83863 -4.83048,5.50202 -4.83048,2.36382 0,-1.12731 -0.67348,-3.35202 -1.49662,-4.9438 -1.898,-3.67033 -0.58219,-7.64588 2.97869,-8.99972 3.18303,-1.21019 3.37779,-5.14696 0.40185,-8.1229 -1.72423,-1.72423 -2.9868,-2.03241 -6.81833,-1.66424 -6.1595,0.59185 -10.50285,3.8978 -13.53127,10.29936 -1.43478,3.03287 -3.43799,5.57167 -4.93414,6.25336 -2.83575,1.29205 -4.7623,4.81413 -9.58261,17.51865 -1.83451,4.83508 -3.65587,8.43508 -4.04748,8 -0.3916,-0.43508 -2.39017,-5.29105 -4.44125,-10.79105 -2.83271,-7.59591 -4.62887,-10.84143 -7.47127,-13.5 -2.05811,-1.925 -4.30474,-5.2082 -4.99252,-7.29599 -2.4079,-7.30933 -13.47783,-11.12752 -20.99353,-7.241 -3.05745,1.58107 -4.07152,3.34837 -4.07152,7.09572 0,2.82168 -2.43892,4.54976 -9.75,6.90834 -2.887505,0.93151 -5.263685,2.22 -5.280415,2.8633 -0.0167,0.6433 -0.50243,0.35828 -1.07935,-0.63337 -2.44482,-4.20234 3.29807,-12.697 8.583915,-12.697 3.2408,0 11.0865,-4.4127 11.97846,-6.73711 0.74475,-1.94077 -3.63636,-3.26438 -10.76771,-3.25312 -13.952033,0.022 -26.550603,10.43544 -28.329803,23.41612 -0.91606,6.68337 0.11405,9.57333 3.41395,9.57785 1.50202,0.002 4.12857,0.85598 5.83677,1.89762 2.43059,1.48214 3.25622,2.83444 3.79762,6.22014 0.38049,2.37944 1.41511,5.12551 2.299158,6.10238 2.31042,2.55297 0.0269,2.32908 -6.302098,-0.61791 -6.56124,-3.05514 -9.09137,-6.72217 -10.51226,-15.23589 -0.94594,-5.66794 -0.88071,-7.86627 0.37281,-12.5632 0.83565,-3.13121 1.26878,-5.94371 0.9625,-6.25 -2.73373,-2.73373 -12.42761,3.12438 -14.67514,8.86833 -1.31317,3.35605 -0.90443,13.57479 0.54298,13.57479 0.4941,0 1.85023,2.025 3.01362,4.5 1.16338,2.475 2.51569,4.5 3.00512,4.5 0.48943,0 0.88987,0.45 0.88987,1 0,2.04203 -6.08454,1.00637 -8.54545,-1.45455 -2.66553,-2.66552 -3.0269,-4.60748 -1.41713,-7.61537 1.16734,-2.1812 -0.43463,-9.93008 -2.05291,-9.93008 -3.32242,0 -6.47798,13.49555 -3.88586,16.61887 0.75516,0.90991 3.18577,2.43142 5.40135,3.38113 4.62945,1.98441 6.07468,3.45721 6.99647,7.12989 0.60132,2.39585 0.34432,2.6774 -3.01999,3.30855 -4.501,0.84439 -7.47648,-1.364 -7.47648,-5.54902 0,-1.54033 -1.16971,-4.50809 -2.59937,-6.59501 -4.85374,-7.08522 -1.9412,-18.52585 7.20577,-28.30471 2.43146,-2.59942 6.43971,-5.79723 8.90722,-7.10624 5.20174,-2.75952 5.53391,-3.61223 1.73638,-4.45735 -7.60379,-1.69218 -11.9842,-4.0919 -10.38622,-5.68989 0.62196,-0.62196 2.68992,-0.30721 5.80135,0.88297 7.16649,2.74132 14.49665,2.27034 22.19043,-1.42581 3.49556,-1.67929 8.109968,-3.34966 10.254248,-3.71193 6.619025,-1.11828 3.230205,-2.48145 -6.16883,-2.48145 -7.607648,0 -9.239228,-0.29825 -10.940978,-2 -2.32806,-2.32806 -2.43974,-3.9283 -0.68388,-9.7987 1.23402,-4.12572 1.35365,-4.22368 2.97294,-2.43438 0.92795,1.02537 1.9793,3.40979 2.33633,5.2987 1.03254,5.46283 2.9349,6.93438 8.964498,6.93438 2.90395,0 6.321715,0.38411 7.595015,0.85357 4.55934,1.68103 7.8151,2.18103 7.8151,1.20021 0,-0.54138 -1.35,-3.11305 -3,-5.71483 -4.23901,-6.68423 -4.09127,-12.17031 0.60805,-22.578248 3.09567,-6.85624 3.44575,-8.34722 2.46518,-10.49934 -1.09562,-2.4046 -1.22249,-2.43626 -3.0686,-0.76555 -1.32915,1.20286 -2.9448,1.588 -5.21518,1.24321 -1.8092,-0.27476 -4.054965,-0.0994 -4.990585,0.38974 -1.52255,0.79594 -1.58826,0.56552 -0.6259,-2.19509 1.42847,-4.09771 6.721235,-6.75854 10.247655,-5.15179 3.44338,1.5689 5.98667,5.83328 5.87289,9.84717 -0.0528,1.86212 -1.301,6.68965 -2.77381,10.72783 -2.35406,6.454438 -2.54418,7.838478 -1.57246,11.447168 1.30159,4.83373 5.08692,9.64514 9.30386,11.8258 3.01226,1.5577 3.01274,1.55749 2.36394,-1.0275 -0.37706,-1.50236 -0.0134,-4.10646 0.86802,-6.21605 1.68341,-4.02898 1.88959,-5.44514 0.76694,-5.26788 -4.10074,0.64749 -7.25,-2.00574 -7.25,-6.10806 0,-5.868108 0.86323,-6.068678 5.73611,-1.33277 l 4.60112,4.47177 -1.27866,6.4329 c -1.533,7.71248 -0.30114,10.52252 5.44403,12.4186 3.00621,0.99214 3.97624,0.91541 6.11105,-0.48337 2.27193,-1.48862 2.46693,-2.10007 1.86252,-5.8401 -0.86995,-5.38324 -3.62915,-11.70034 -7.09553,-16.24499 -2.87525,-3.769648 -11.62795,-9.406908 -14.63064,-9.423018 -0.9625,-0.005 -1.75,-0.45938 -1.75,-1.00938 0,-1.70748 6.38153,-1.09972 10.5,1 2.15759,1.1 4.05273,2 4.21144,2 0.15871,0 0.28856,-1.15961 0.28856,-2.57692 0,-3.96416 -4.69584,-8.00042 -10.28244,-8.83819 -3.84971,-0.5773 -5.00868,-1.24717 -6.22407,-3.59748 -0.82142,-1.58845 -1.49349,-3.74476 -1.49349,-4.7918 0,-1.80386 0.26486,-1.77694 5.05007,0.51317 2.81996,1.34959 5.52937,3.46883 6.13545,4.79903 0.59696,1.31019 1.76384,2.64251 2.59306,2.96072 5.78836,2.2212 -1.67532,-7.85978 -8.77289,-11.8493 -4.52618,-2.54415 -6.61636,-3.09105 -11.86206,-3.10378 -6.273745,-0.0152 -6.425415,0.0495 -10.273585,4.38332 -2.148208,2.41933 -3.682818,4.62179 -3.410238,4.89437 0.97128,0.97128 9.808818,-3.09011 13.196663,-6.06466 2.51228,-2.20582 3.74515,-2.72686 4.54935,-1.92266 2.39353,2.39353 -10.187665,10.21725 -16.401033,10.19912 -1.30924,-0.004 -1.7646,1.05927 -2,4.66915 -0.29555,4.53233 -0.46402,4.7562 -5.55479,7.38105 -4.77427,2.46166 -5.25,2.54076 -5.25,0.87296 0,-2.89253 2.13878,-6.83737 4.03298,-7.43857 0.9512,-0.3019 2.79541,-1.49778 4.09824,-2.65751 l 2.36878,-2.1086 -3,0.71624 c -4.54323,1.08468 -9.37571,4.41931 -11.02425,7.60722 -0.81166,1.56959 -1.47575,5.303 -1.47575,8.29647 0,3.82599 -0.42967,5.607548 -1.44651,5.997748 -1.0786,0.4139 -1.61776,-0.58693 -2.11983,-3.934958 -1.37476,-9.16752 4.05953,-16.94097 13.63321,-19.50154 3.39846,-0.90895 4.56915,-1.72273 4.68468,-3.25647 0.19079,-2.53279 2.98841,-6.36484 6.633568,-9.08634 2.23572,-1.66921 4.22325,-2.05785 10.438215,-2.0411 8.44948,0.0228 15.46741,2.47094 20.27196,7.0718 2.9307,2.80644 3.31028,2.57428 6.6912,-4.09249 1.11569,-2.2 3.54902,-5.74833 5.40741,-7.88519 2.7203,-3.12791 3.81512,-3.74673 5.61699,-3.17483 l 2.23811,0.71035 -2.91037,3.67483 c -7.48526,9.45143 -9.62789,18.85391 -7.17295,31.4771 2.54708,13.097048 13.47963,31.213978 18.4028,30.496288 1.12641,-0.1642 3.3155,-2.10567 4.86464,-4.31437 4.9829,-7.10442 4.92297,-15.9416 -0.14752,-21.755558 -3.68547,-4.22585 -4.47388,-7.02208 -3.12895,-11.09727 1.1563,-3.50362 6.45048,-9.38361 5.97068,-6.63135 -0.14382,0.825 0.0967,3.2299 0.53456,5.34421 0.50284,2.4283 0.35576,5.19074 -0.39932,7.50001 -1.04428,3.19376 -0.91917,4.27671 0.98999,8.568908 2.55975,5.75486 3.53238,4.96971 4.54796,-3.671268 0.78638,-6.69084 -1.78248,-19.43218 -4.6538,-23.08246 -1.92844,-2.45162 -2.69934,-7.6594 -1.13381,-7.6594 1.73671,0 6.28958,5.85714 9.16167,11.78624 1.65549,3.41757 3.26081,6.21376 3.56736,6.21376 0.30656,0 1.87742,-0.68262 3.49079,-1.51693 3.97938,-2.05781 5.96727,-6.3171 5.96727,-12.78553 0,-6.68033 -2.78075,-11.25642 -8.7405,-14.38366 l -4.16621,-2.18611 1.63857,3.43611 c 1.52291,3.1936 1.51962,3.68554 -0.0466,6.97005 -0.92691,1.94366 -1.68526,4.23116 -1.68526,5.08333 0,2.61062 -2.41613,0.91417 -3.35363,-2.35471 -0.6485,-2.26118 -0.45296,-3.94388 0.73504,-6.32529 0.89022,-1.78449 1.61859,-3.79581 1.61859,-4.46958 0,-2.40341 -5.80985,-3.77718 -13.30096,-3.14509 -8.31461,0.70158 -11.72191,-0.42176 -6.64619,-2.19117 4.63179,-1.61465 12.93603,-1.38669 16.44715,0.45149 1.65,0.86383 5.13112,1.67076 7.73583,1.79317 5.59512,0.26296 9.95018,3.72793 12.74238,10.13808 2.62532,6.02703 4.05915,6.83656 10.65024,6.01306 4.23703,-0.52939 5.85508,-0.37142 6.49225,0.63383 1.43063,2.25709 1.00013,2.83895 -2.10046,2.83895 -6.79261,0 -16.50634,6.78643 -14.45788,10.1009 0.89658,1.45069 7.50414,0.40562 13.10785,-2.07317 6.24424,-2.76212 7.07308,-8.27049 2.18038,-14.49054 -2.55046,-3.24239 -11.1182,-7.51328 -15.10059,-7.52742 -1.5125,-0.005 -2.75,-0.51775 -2.75,-1.1386 0,-1.90798 9.99706,-0.002 15.45196,2.94555 6.05125,3.27009 8.87204,7.75587 9.54771,15.18328 l 0.50033,5.5 5.75,0.91185 c 4.2112,0.66783 5.74731,1.33688 5.73994,2.5 -0.008,1.31002 -1.54066,1.63129 -8.75,1.83448 -18.76554,0.52891 -30.95151,3.74531 -35.73698,9.43252 -4.77754,5.677788 -8.87584,23.684448 -6.20402,27.258558 1.34187,1.79503 1.86036,1.8452 7.05506,0.68268 5.77203,-1.29173 9.646,-4.54479 9.646,-8.09996 0,-2.7826 3.59721,-5.2204 8.52235,-5.77554 l 4.60352,-0.51888 -2.61759,3.88714 c -1.76204,2.61665 -3.8062,4.2381 -6.25419,4.96091 -4.86664,1.43696 -5.81433,3.91357 -1.12258,2.93368 5.11096,-1.06744 11.76421,-5.28863 13.92742,-8.83632 2.33702,-3.83274 2.52376,-9.94557 0.36964,-12.099688 -1.53589,-1.53589 -2.20729,-1.68984 -8.48859,-1.94643 l -3.06001,-0.125 2.61578,2.25 c 1.43868,1.237498 3.60318,2.256888 4.81001,2.265308 2.4339,0.017 5.43202,1.58024 4.60905,2.40321 -1.21492,1.21492 -8.33819,-1.80623 -11.9479,-5.067378 -2.56212,-2.31472 -4.33143,-3.23143 -5.17922,-2.68345 -1.55022,1.002 -10.78769,1.14485 -10.78769,0.16682 0,-1.39398 5.33744,-4.83451 7.5,-4.83451 1.22666,0 3.47956,0.98268 5.00646,2.18374 2.12482,1.67139 3.89619,2.12429 7.54987,1.93037 5.26764,-0.27958 10.26316,1.74583 11.91403,4.830498 2.46761,4.61079 0.14008,13.23742 -5.31488,19.69873 -2.2415,2.65502 -2.40817,3.23758 -1.07284,3.75 2.97069,1.13996 9.51288,0.60861 12.71702,-1.03287 3.75689,-1.92466 4.66422,-3.08892 4.68503,-6.01169 0.01,-1.40095 1.27097,-2.89209 3.61558,-4.27544 1.98015,-1.16832 3.83263,-3.01277 4.11663,-4.09878 0.88059,-3.36738 2.2831,-2.1734 2.2831,1.94365 0,5.74066 -0.74105,6.91688 -6.05402,9.60916 -8.93508,4.52775 -6.53876,6.10442 3.77069,2.48094 7.0739,-2.48627 7.60602,-3.02938 6.30942,-6.4397 -0.8168,-2.14833 -0.617,-4.15327 0.90492,-9.08066 2.5488,-8.252078 1.51867,-12.390598 -4.53548,-18.221118 -2.41754,-2.32825 -4.39553,-4.69075 -4.39553,-5.25001 0,-3.32913 7.80181,2.45813 10.76213,7.98318 2.54161,4.7436 2.55404,5.38346 0.41219,21.223818 -0.72812,5.38492 -0.67157,5.63118 0.95507,4.15909 4.38963,-3.97257 6.16473,-12.28967 3.40241,-15.94178 -2.56613,-3.392728 -1.71175,-5.217508 0.9998,-2.135368 3.4813,3.957098 3.4614,12.415088 -0.0437,18.546308 -1.36837,2.39364 -2.48795,4.9755 -2.48795,5.73746 0,0.76196 1.73423,2.48015 3.85383,3.8182 5.43493,3.43092 10.80775,10.0573 12.64868,15.59982 2.64367,7.95935 2.07984,18.98641 -1.30346,25.49245 -0.97841,1.88146 -1.48395,5.11816 -1.35591,8.68107 0.19424,5.40491 0.0358,5.80949 -3.25949,8.32293 -1.90502,1.45302 -3.61305,3.62154 -3.79564,4.81893 l -0.33197,2.17707 -1.22802,-2.18426 z M 49.590387,147.44977 c -2.1361,-3.0497 -1.94767,-9.62405 0.38551,-13.4505 1.06411,-1.74515 4.34023,-4.95004 7.28027,-7.12198 7.30524,-5.3967 11.4582,-10.36648 12.90098,-15.43843 1.90432,-6.6944 2.87653,-6.69643 2.87653,-0.006 0,3.72598 0.49398,6.5576 1.25,7.16522 0.6875,0.55256 2.8844,2.3703 4.88201,4.03943 1.99761,1.66913 4.47261,3.04909 5.50001,3.06658 1.79205,0.0305 1.78907,0.0915 -0.0731,1.5 -2.53339,1.91616 -7.53546,1.87333 -10.33637,-0.0885 -1.78485,-1.25013 -2.22255,-2.52607 -2.22255,-6.47876 v -4.92206 l -5.32722,5.22876 c -2.92997,2.87582 -6.79121,6.44763 -8.58052,7.93737 -2.6236,2.18433 -3.10776,3.15212 -2.50136,5 1.14209,3.48028 0.78651,5.14643 -1.96297,9.19802 -1.38568,2.04191 -2.27069,4.36075 -1.96668,5.15297 0.83196,2.16806 -0.34436,1.73091 -2.10454,-0.78211 z M 252.737,129.06925 c -0.98818,-1.31833 -2.47114,-2.39697 -3.29546,-2.39697 -0.82432,0 -2.57775,-1.07898 -3.8965,-2.39773 -1.31875,-1.31875 -2.98579,-2.60442 -3.70454,-2.85705 -0.71875,-0.25263 0.3955,-1.18188 2.47611,-2.065 6.19223,-2.62832 10.46871,0.0492 11.42125,7.15092 0.6372,4.75074 -0.58184,5.79306 -3.00086,2.56583 z M 55.534207,124.25544 c -0.27529,-0.87074 -0.7299,-2.30635 -1.01024,-3.19025 -0.89715,-2.82869 1.38499,-8.89924 4.4492,-11.83493 1.80404,-1.72838 6.60943,-4.11135 12.23174,-6.06567 8.50824,-2.95746 9.32633,-3.473518 10.07272,-6.353948 0.60228,-2.32425 1.77141,-3.53576 4.52057,-4.68443 2.0395,-0.85216 4.72683,-2.50635 5.971828,-3.67597 l 2.26365,-2.12659 v 3.71977 c 0,4.55869 -3.106458,8.01217 -8.635048,9.59965 -2.12572,0.610378 -8.13995,3.229148 -13.36495,5.819498 -11.07604,5.49105 -14.27623,9.10359 -13.79367,15.57103 0.29805,3.99455 -1.70678,6.38173 -2.7058,3.22184 z m 96.064453,-6.37842 c -0.35951,-1.13273 -2.20871,-2.97701 -4.10932,-4.0984 -1.90061,-1.12139 -3.45566,-2.7307 -3.45566,-3.57624 0,-0.84554 -0.9,-3.21655 -2,-5.26892 -2.11966,-3.95481 -2.38365,-6.092918 -1.375,-11.136178 1.01698,-5.08488 2.63956,-3.68405 1.9065,1.64595 -0.87745,6.379848 0.61923,9.976258 4.89526,11.762898 5.46842,2.28485 8.08681,7.528 5.66725,11.34828 -0.69136,1.09161 -1.01276,0.94922 -1.52903,-0.67739 z m 28.89145,-5.34203 c -1.25899,-3.96671 1.75813,-10.21416 6.28344,-13.010958 3.61437,-2.2338 5.45241,-1.90118 3.00706,0.544178 -0.90802,0.90802 -1.29232,2.53138 -0.98269,4.15109 0.41356,2.16344 -0.25916,3.36161 -3.60407,6.41916 -3.65236,3.33859 -4.1787,3.55081 -4.70374,1.89653 z m 35.16325,-0.94653 c 0.61582,-0.7789 1.66328,-3.10388 2.3277,-5.16663 0.88843,-2.75823 1.915,-3.92285 3.88032,-4.40209 1.46977,-0.35841 3.94433,-1.70821 5.49903,-2.999548 1.55469,-1.29135 3.20539,-2.34791 3.66821,-2.34791 0.46282,0 1.55329,-0.27314 2.42327,-0.60699 1.03799,-0.39831 1.58179,-0.0545 1.58179,1 0,1.09942 -0.8986,1.60699 -2.84501,1.60699 -3.59373,0 -6.15499,2.777138 -6.15499,6.673748 0,3.79966 -2.63692,6.2323 -7.62597,7.03518 -3.25216,0.52336 -3.69429,0.39611 -2.75435,-0.79275 z m -124.552003,-6.2431 c -0.0568,-4.05057 0.402458,-5.29707 2.855398,-7.749998 1.60769,-1.60769 3.65656,-2.92308 4.55305,-2.92308 0.89649,0 3.268025,-1.11308 5.270085,-2.47351 4.25449,-2.89101 6.05769,-2.31597 2.00196,0.63842 -1.55426,1.1322 -2.74817,2.95509 -2.74817,4.19599 0,3.266378 -2.5805,6.345548 -6.364485,7.594368 -1.84705,0.60959 -3.8402,2.10652 -4.42922,3.32653 -0.924968,1.91585 -1.080158,1.56027 -1.138618,-2.60872 z m 61.650413,0.68869 c -0.43006,-1.17603 -2.52026,-3.28862 -4.64491,-4.69464 -4.13991,-2.739668 -3.95587,-2.160938 -5.68014,-17.861448 -0.7588,-6.90934 1.77537,-13.03473 6.8546,-16.56834 3.19142,-2.22026 3.26889,-2.22582 4.1344,-0.29655 0.70422,1.56973 0.2232,2.5205 -2.38597,4.71597 -4.00584,3.37069 -5.99607,7.89147 -5.99607,13.61999 0,4.79806 1.46488,7.37447 4.49239,7.90112 2.82188,0.49088 4.66876,5.01883 4.31238,10.572558 -0.23424,3.65047 -0.48571,4.25476 -1.08668,2.61134 z m 58.28191,-3.00579 c 0,-0.35422 1.6875,-2.15304 3.75,-3.997398 l 3.75,-3.35337 -6.26926,0.16219 c -4.85452,0.12559 -6.54725,-0.21799 -7.50116,-1.52254 -0.67754,-0.9266 -2.58138,-2.06908 -4.23074,-2.53884 l -2.99884,-0.85412 2.96097,-1.18141 c 3.78582,-1.51052 7.30883,-0.62249 10.83385,2.73087 2.63976,2.5112 2.94411,2.57492 5.48554,1.14845 3.70198,-2.07787 5.38799,-5.69383 4.83205,-10.36324 -0.58713,-4.9313 -3.20986,-8.51978 -8.12393,-11.11538 -4.28482,-2.26322 -5.65152,-4.47119 -2.76759,-4.47119 3.29803,0 10.83352,5.54121 12.60117,9.26626 4.09672,8.63319 0.0159,20.92204 -8.39152,25.269658 -3.1234,1.61517 -3.93054,1.78357 -3.93054,0.82006 z m -65,-16.613568 c 0,-0.76658 1.18436,-2.48472 2.63192,-3.8181 3.27535,-3.01699 6.31828,-9.45767 6.34238,-13.42431 0.0277,-4.55267 -3.31235,-9.08005 -9.18293,-12.44747 -9.51958,-5.46051 -16.79137,-5.10677 -16.79137,0.81683 0,1.60173 -0.8212,4.74644 -1.82488,6.98824 -1.74868,3.9058 -1.91572,4.01239 -4,2.5525 -4.28484,-3.00122 -2.41814,-9.66799 3.32488,-11.87453 1.1163,-0.4289 1.48881,-0.96102 0.84307,-1.20431 -1.81434,-0.68357 -7.6414,2.11377 -11.54781,5.54364 -3.4286,3.01035 -6.79526,4.10726 -6.79526,2.21399 0,-1.5979 6.32033,-6.32598 11.86084,-8.87278 3.04503,-1.39971 8.05517,-2.68049 11.59794,-2.96487 5.60066,-0.44956 7.0563,-0.13078 14.26503,3.12405 4.41535,1.99359 8.53541,3.62471 9.15568,3.62471 0.62027,0 2.74745,-0.8681 4.72707,-1.92912 3.40923,-1.82724 6.39344,-1.84184 6.39344,-0.0313 0,0.4541 -0.88826,1.10755 -1.97391,1.45212 -3.7441,1.18833 -6.02609,5.38343 -6.02609,11.07804 0,2.91502 -0.47863,6.56684 -1.06362,8.11514 -1.81198,4.79581 -11.93638,14.17475 -11.93638,11.05751 z m 27.5,-17.13687 c 0,-4.88082 0.45018,-6.88914 1.90499,-8.49836 2.59897,-2.87483 3.23051,-2.65815 3.33088,1.14282 0.0472,1.7875 0.39548,4.66796 0.77395,6.40103 0.53831,2.46497 0.23113,3.60802 -1.41085,5.25 -3.62012,3.62012 -4.59897,2.70587 -4.59897,-4.29549 z M 99.033675,260.20746 c 0,-1.89511 -3.48806,-3.74828 -6.30158,-3.34797 l -2.198418,0.31279 2.249998,2.25 c 2.53815,2.53815 6.25,3.00447 6.25,0.78518 z m 118.500005,0.46482 c 0.33992,-0.55 0.16803,-1 -0.38197,-1 -0.55,0 -1.27811,0.45 -1.61803,1 -0.33992,0.55 -0.16803,1 0.38197,1 0.55,0 1.27811,-0.45 1.61803,-1 z m -113.5,-1 c 0,-0.55 -0.70156,-1 -1.55902,-1 -0.85746,0 -1.2809,0.45 -0.94098,1 0.33992,0.55 1.04148,1 1.55902,1 0.51754,0 0.94098,-0.45 0.94098,-1 z m -16.000003,-2 c 0,-0.55 -0.70156,-1 -1.55902,-1 -0.85746,0 -1.2809,0.45 -0.94098,1 0.33992,0.55 1.04148,1 1.55902,1 0.51754,0 0.94098,-0.45 0.94098,-1 z m 118.000003,-2 c 0,-0.55 -0.42344,-1 -0.94098,-1 -0.51754,0 -1.2191,0.45 -1.55902,1 -0.33992,0.55 0.0835,1 0.94098,1 0.85746,0 1.55902,-0.45 1.55902,-1 z m 8.7823,-0.8455 c 0.28658,-0.86063 -0.19425,-1.221 -1.33427,-1 -0.98026,0.19002 -1.98391,0.95098 -2.23033,1.691 -0.28658,0.86063 0.19425,1.221 1.33427,1 0.98026,-0.19002 1.98391,-0.95098 2.23033,-1.691 z m 8.90325,-0.32881 c 2.74025,-2.57434 2.94596,-3.82569 0.6289,-3.82569 -1.75534,0 -6.31445,3.73592 -6.31445,5.17431 0,1.60432 3.40101,0.79759 5.68555,-1.34862 z m -138.685553,-1.2439 c 0,-2.5698 -4.84621,-6.58179 -7.95034,-6.58179 -1.72611,0 -1.19381,2.21766 1.12465,4.68555 1.8088,1.92537 6.82569,3.31911 6.82569,1.89624 z m 6.999998,-0.61317 c 0,-1.19717 -2.820618,-2.48133 -3.643258,-1.65869 -0.87571,0.87571 0.60965,2.69007 2.20228,2.69007 0.79254,0 1.440978,-0.46412 1.440978,-1.03138 z m -17.999998,-4 c 0,-1.19717 -2.82062,-2.48133 -3.64326,-1.65869 -0.87571,0.87571 0.60965,2.69007 2.20227,2.69007 0.79255,0 1.44099,-0.46412 1.44099,-1.03138 z m 153.000003,-2.08665 c 0,-0.55 -0.45,-0.72189 -1,-0.38197 -0.55,0.33992 -1,1.06803 -1,1.61803 0,0.55 0.45,0.72189 1,0.38197 0.55,-0.33992 1,-1.06803 1,-1.61803 z m 7.3625,-1.08401 c 0.58672,-0.93612 0.78372,-1.98508 0.43778,-2.33102 -0.90863,-0.90862 -4.45803,1.19878 -5.17769,3.07418 -0.84806,2.21003 3.29624,1.56025 4.73991,-0.74316 z M 85.217007,244.45561 c -0.71756,-0.71756 -1.18333,-0.7766 -1.18333,-0.15 0,1.33478 1.18261,2.51739 1.85,1.85 0.28417,-0.28416 -0.0158,-1.04916 -0.66667,-1.7 z m -6.42596,-2.03333 c -1.4026,-2.12291 -5.75737,-3.74784 -5.75737,-2.14829 0,1.56448 3.39993,4.39829 5.27696,4.39829 1.81363,0 1.85109,-0.17541 0.48041,-2.25 z m -6.75737,0.70034 c 0,-0.30231 -0.67966,-1.86397 -1.51035,-3.47036 -1.59104,-3.07673 -4.26297,-4.97998 -6.99129,-4.97998 -2.2799,0 -1.0638,3.83901 2.13822,6.75 2.21247,2.01138 6.36342,3.12054 6.36342,1.70034 z m 169.020063,-4.97451 c 0.69572,-0.83829 0.98669,-1.80241 0.64661,-2.1425 -0.72629,-0.72629 -3.66667,1.51036 -3.66667,2.78911 0,1.37745 1.62985,1.02849 3.02006,-0.64661 z M 60.033677,235.79472 c 0,-1.27875 -2.94037,-3.5154 -3.66666,-2.78911 -0.72629,0.72629 1.51035,3.66667 2.78911,3.66667 0.48265,0 0.87755,-0.3949 0.87755,-0.87756 z m 13.36162,-1.62244 c -0.60146,-1.56739 -3.36162,-2.11477 -3.36162,-0.66667 0,1.2217 1.14935,2.16667 2.63528,2.16667 0.74644,0 1.05635,-0.64001 0.72634,-1.5 z m -6.36162,-2.67126 c 0,-1.66027 -3.05445,-4.82874 -4.65499,-4.82874 -1.82646,0 -1.69845,2.5037 0.22642,4.42857 1.84477,1.84477 4.42857,2.07825 4.42857,0.40017 z m 182.045843,-1.91439 c 0.61391,-1.1471 0.86562,-2.33623 0.55935,-2.6425 -0.82594,-0.82593 -3.60519,1.75705 -3.60519,3.35059 0,2.07032 1.78039,1.65642 3.04584,-0.70809 z m -190.045843,-0.9598 c 0,-2.19069 -4.15312,-6.95455 -6.06295,-6.95455 -1.78014,0 -0.18493,5.21809 2.21638,7.25 2.71522,2.29754 3.84657,2.21064 3.84657,-0.29545 z m 190.500003,-4.95455 c 0.33992,-0.55 0.14148,-1 -0.44098,-1 -0.58246,0 -1.05902,0.45 -1.05902,1 0,0.55 0.19844,1 0.44098,1 0.24254,0 0.7191,-0.45 1.05902,-1 z m -189.138373,-2.5 c -0.6086,-1.58598 -2.36163,-2.08084 -2.36163,-0.66667 0,1.05752 1.09309,2.16667 2.13528,2.16667 0.44108,0 0.54293,-0.675 0.22635,-1.5 z m 195.438373,0.3 c 0.66,-0.66 1.2,-2.02583 1.2,-3.03518 0,-1.52531 -0.33771,-1.65445 -2,-0.76482 -1.1,0.5887 -2,1.95453 -2,3.03518 0,2.23429 1.04507,2.51975 2.8,0.76482 z M 49.574797,219.73881 c -0.36253,-0.58659 -1.13769,-1.06653 -1.72258,-1.06653 -0.66309,0 -0.58723,0.57378 0.20152,1.52417 1.37154,1.6526 2.59733,1.2838 1.52106,-0.45764 z m 5.45888,-0.8754 c 0,-1.72754 -2.70165,-4.48288 -3.35655,-3.42324 -0.364,0.58898 0.0494,1.78215 0.91879,2.65149 1.76157,1.76157 2.43776,1.97564 2.43776,0.77175 z m -7.57463,-9.2736 c -0.95444,-1.05464 -2.1156,-1.91753 -2.58036,-1.91753 -1.69731,0 -0.78452,4.06049 1.40499,6.25 l 2.25,2.25 0.33036,-2.33247 c 0.1817,-1.28285 -0.45055,-3.19535 -1.40499,-4.25 z m 209.574633,3.08247 c 0,-0.55 -0.19844,-1 -0.44098,-1 -0.24254,0 -0.7191,0.45 -1.05902,1 -0.33992,0.55 -0.14148,1 0.44098,1 0.58246,0 1.05902,-0.45 1.05902,-1 z m 6.8,-3.2 c 0.66,-0.66 1.18578,-2.5725 1.1684,-4.25 l -0.0316,-3.05 -2.4684,2.80576 c -1.35762,1.54317 -2.4684,3.45567 -2.4684,4.25 0,1.75299 2.15288,1.89136 3.8,0.24424 z M 47.033677,203.7313 c 0,-0.51754 -0.45,-1.2191 -1,-1.55902 -0.55,-0.33992 -1,0.0835 -1,0.94098 0,0.85746 0.45,1.55902 1,1.55902 0.55,0 1,-0.42344 1,-0.94098 z m 223.000003,-3.11804 c 0,-0.51754 -0.45,-0.94098 -1,-0.94098 -0.55,0 -1,0.70156 -1,1.55902 0,0.85746 0.45,1.2809 1,0.94098 0.55,-0.33992 1,-1.04148 1,-1.55902 z M 43.033677,199.36341 c 0,-1.88398 -2.7076,-5.31686 -3.53833,-4.48613 -1.16977,1.16977 0.47232,5.795 2.05738,5.795 0.81453,0 1.48095,-0.58899 1.48095,-1.30887 z M 264.6886,199.12915 c 0.80982,-2.11034 -0.54185,-3.2497 -1.69398,-1.42791 -1.22421,1.93575 -1.19966,2.97104 0.0704,2.97104 0.56727,0 1.29786,-0.69441 1.62354,-1.54313 z m 6.93226,-5.94958 c 1.09648,-1.67343 1.40524,-3.39896 0.93944,-5.25 l -0.69385,-2.75729 -2.41638,2.80576 c -2.35728,2.73713 -3.09145,5.68585 -1.74972,7.02757 1.2003,1.20031 2.2614,0.70608 3.92051,-1.82604 z M 42.033677,191.67228 c 0,-0.55 -0.47656,-1 -1.05901,-1 -0.58246,0 -0.78091,0.45 -0.44099,1 0.33992,0.55 0.81648,1 1.05902,1 0.24254,0 0.44098,-0.45 0.44098,-1 z m 222.361633,-0.5 c 0.31658,-0.825 0.13972,-1.5 -0.39301,-1.5 -0.53274,0 -0.96862,0.675 -0.96862,1.5 0,0.825 0.17686,1.5 0.39301,1.5 0.21616,0 0.65203,-0.675 0.96862,-1.5 z M 37.868827,186.36425 c -0.75712,-1.41469 -1.32092,-1.73465 -1.59703,-0.90632 -0.62628,1.87885 0.58539,4.44146 1.75752,3.71704 0.66565,-0.41139 0.61095,-1.36926 -0.16049,-2.81072 z m 239.164853,-2.75099 c 0,-1.06754 -0.40186,-1.94098 -0.89301,-1.94098 -1.17436,0 -2.27181,2.9243 -1.54114,4.10655 0.8721,1.41109 2.43415,0.0214 2.43415,-2.16557 z m -7.60699,0.47723 c 0.93865,-2.44608 0.7172,-6.41821 -0.35783,-6.41821 -1.30199,0 -3.03518,3.38866 -3.03518,5.93426 0,2.42373 2.5112,2.78191 3.39301,0.48395 z m 7.40611,-11.83966 c -0.37944,-5.17375 -2.69497,-5.4475 -4.56299,-0.53944 -1.04222,2.73834 -1.09061,4.20904 -0.21388,6.5 l 1.13311,2.96089 1.97144,-2.42145 c 1.40316,-1.72344 1.88522,-3.59712 1.67232,-6.5 z m -241.697933,3.70913 c -0.9606,-1.65061 -1.0427,-1.62794 -1.07078,0.29565 -0.0338,2.31486 1.23522,4.11979 1.76953,2.51685 0.18789,-0.56366 -0.12655,-1.82928 -0.69875,-2.8125 z m 232.898813,-3.40571 c 0,-1.1 -0.45,-1.72189 -1,-1.38197 -0.55,0.33992 -1,1.51803 -1,2.61803 0,1.1 0.45,1.72189 1,1.38197 0.55,-0.33992 1,-1.51803 1,-2.61803 z M 34.033677,168.2313 c 0,-1.34254 -0.40284,-2.68996 -0.89521,-2.99426 -1.17665,-0.72721 -2.20085,2.02132 -1.46641,3.93524 0.89926,2.34345 2.36162,1.76077 2.36162,-0.94098 z m 238.588793,-2.05678 c 0.3448,-1.37377 0.33684,-3.25367 -0.0177,-4.17755 -1.10269,-2.87357 -3.99599,0.84629 -3.1817,4.09067 0.82353,3.28122 2.38701,3.32367 3.19939,0.0869 z m 7.41121,-1.56126 c 0,-1.06754 -0.45,-1.94098 -1,-1.94098 -0.55,0 -1,1.15156 -1,2.55902 0,1.45136 0.43284,2.2915 1,1.94098 0.55,-0.33992 1,-1.49148 1,-2.55902 z m -2.60699,-4.52277 c 0.99716,-2.59856 0.69253,-5.91897 -0.7203,-7.85113 -1.23848,-1.69373 -1.40879,-1.61845 -2.54516,1.12499 -0.86984,2.09997 -0.92627,3.70715 -0.19746,5.62406 1.14713,3.01718 2.55597,3.46555 3.46292,1.10208 z M 32.868347,156.61594 c -0.51263,-3.50312 -2.83467,-3.66176 -2.83467,-0.19366 0,1.60417 0.3075,3.22417 0.68334,3.6 1.15295,1.15296 2.50519,-0.98813 2.15133,-3.40634 z m 237.165333,-1.00268 c 0,-0.51754 -0.45,-0.94098 -1,-0.94098 -0.55,0 -1,0.70156 -1,1.55902 0,0.85746 0.45,1.2809 1,0.94098 0.55,-0.33992 1,-1.04148 1,-1.55902 z M 35.033677,149.67228 c 0,-1.1 -0.45,-2 -1,-2 -0.55,0 -1,0.9 -1,2 0,1.1 0.45,2 1,2 0.55,0 1,-0.9 1,-2 z M 273.03368,147.7313 c 0,-1.06754 -0.41157,-2.19535 -0.91459,-2.50623 -1.09602,-0.67738 -1.97744,1.43968 -1.33111,3.19721 0.71438,1.94261 2.2457,1.47144 2.2457,-0.69098 z m 5.60417,-1.78819 c -1.01652,-1.01651 -1.85525,0.51389 -1.02122,1.86338 0.63003,1.01942 0.86558,1.02021 1.2043,0.004 0.2316,-0.69479 0.14921,-1.53513 -0.18308,-1.86742 z M 33.033677,142.13162 c 0,-3.94802 -1.03569,-5.67461 -2.61678,-4.36242 -1.452766,1.20569 -1.809778,4.62791 -0.76643,7.34682 0.86985,2.2668 3.38321,0.0497 3.38321,-2.9844 z m 5,0.54066 c 0,-0.55 -0.45,-1 -1,-1 -0.55,0 -1,0.45 -1,1 0,0.55 0.45,1 1,1 0.55,0 1,-0.45 1,-1 z M 276.0031,141.72943 c 1.06476,-1.98953 -0.41632,-7.05715 -2.06255,-7.05715 -1.4932,0 -1.95564,3.79885 -0.77727,6.38509 1.4261,3.12996 1.51334,3.1506 2.83982,0.67206 z M 36.860617,134.23618 c 0.23043,-1.96067 -0.0648,-2.65312 -1,-2.34576 -0.72982,0.23985 -1.47406,1.68794 -1.65388,3.21796 -0.23042,1.96067 0.0648,2.65312 1,2.34576 0.72982,-0.23985 1.47406,-1.68794 1.65388,-3.21796 z m 233.777233,-2.29307 c -1.01652,-1.01651 -1.85525,0.51389 -1.02122,1.86338 0.63003,1.01942 0.86558,1.02021 1.2043,0.004 0.2316,-0.69479 0.14921,-1.53513 -0.18308,-1.86742 z M 34.620867,129.17957 c 1.80547,-2.7555 1.18274,-7.924 -0.87407,-7.25449 -1.87771,0.61122 -3.69501,5.10045 -3.05518,7.54716 0.7501,2.86836 1.91491,2.7816 3.92925,-0.29267 z m 5.41281,-1.56631 c 0,-1.13246 -0.45,-1.7809 -1,-1.44098 -0.55,0.33992 -1,1.26648 -1,2.05902 0,0.79254 0.45,1.44098 1,1.44098 0.55,0 1,-0.92656 1,-2.05902 z m 233.000003,0.14081 c 0,-2.61266 -1.02374,-5.08179 -2.10699,-5.08179 -1.02214,0 -1.18455,3.07668 -0.28602,5.41821 0.8439,2.19918 2.39301,1.9814 2.39301,-0.33642 z M 40.812587,118.8888 c -0.1534,-0.72719 -0.67986,-1.41089 -1.16992,-1.51934 -1.511,-0.33438 -2.9678,2.92638 -2.19671,4.9169 0.7091,1.8305 0.77339,1.82772 2.18805,-0.0947 0.80161,-1.08936 1.33197,-2.57563 1.17858,-3.30282 z m 227.772883,-4.94215 c -0.43481,-1.13311 -0.93074,-1.29542 -1.67721,-0.54895 -0.74648,0.74648 -0.6758,1.75689 0.23903,3.41722 1.13704,2.0636 1.34604,2.132 1.67722,0.54895 0.20807,-0.99463 0.10051,-2.53238 -0.23904,-3.41722 z M 40.033677,110.48211 c 0,-2.56462 -0.21784,-2.76361 -1.98819,-1.81615 -2.16429,1.15829 -3.61577,5.22008 -2.50667,7.01463 1.15696,1.872 4.49486,-1.9884 4.49486,-5.19848 z m 4,2.19017 c 0,-0.55 -0.19844,-1 -0.44098,-1 -0.24254,0 -0.7191,0.45 -1.05902,1 -0.33992,0.55 -0.14147,1 0.44099,1 0.58245,0 1.05901,-0.45 1.05901,-1 z M 264.03368,109.2313 c 0,-0.24254 -0.45,-0.7191 -1,-1.05902 -0.55,-0.33992 -1,-0.14148 -1,0.44098 0,0.58246 0.45,1.05902 1,1.05902 0.55,0 1,-0.19844 1,-0.44098 z M 44.899017,105.12125 c 0.31608,-1.6311 0.14754,-1.70455 -1.25,-0.54469 -1.91125,1.5862 -2.14923,3.44015 -0.36534,2.84619 0.6875,-0.22891 1.41441,-1.26459 1.61534,-2.3015 z m 220.134663,-1.32653 c 0,-1.03265 -0.675,-2.43775 -1.5,-3.12244 -1.22294,-1.014948 -1.5,-0.960318 -1.5,0.29577 0,2.27674 1.08726,4.70423 2.10699,4.70423 0.49115,0 0.89301,-0.8449 0.89301,-1.87756 z M 46.217557,99.168052 c 1.56743,-3.44014 0.0687,-4.51965 -2.26996,-1.63499 -2.30903,2.848148 -2.43145,4.139218 -0.39248,4.139218 0.83679,0 2.03489,-1.1269 2.66244,-2.504228 z m 212.999453,-1.71244 c -0.71756,-0.71756 -1.18333,-0.7766 -1.18333,-0.15 0,1.33478 1.18261,2.51739 1.85,1.85 0.28417,-0.28416 -0.0158,-1.04916 -0.66667,-1.7 z M 52.033677,93.554252 c 0,-0.55 -0.45,-0.72189 -1,-0.38197 -0.55,0.33992 -1,1.06803 -1,1.61803 0,0.55 0.45,0.72189 1,0.38197 0.55,-0.33992 1,-1.06803 1,-1.61803 z m 209.000003,-1.27119 c 0,-0.76406 -0.86657,-2.45156 -1.92571,-3.75 -1.68622,-2.06719 -2.0067,-2.15287 -2.577,-0.68892 -0.35821,0.91952 -0.15081,2.60702 0.46089,3.75 1.25236,2.34005 4.04182,2.81551 4.04182,0.68892 z M 53.426867,88.410732 c 0.56984,-0.90339 0.72536,-1.95323 0.34561,-2.33299 -0.95136,-0.95136 -3.7388,1.50917 -3.7388,3.30032 0,1.8101 2.00107,1.23964 3.39319,-0.96733 z m 200.606813,-2.73845 c 0,-1.13148 -0.66667,-2 -1.53518,-2 -1.22531,0 -1.31913,0.4037 -0.46482,2 0.5887,1.1 1.27953,2 1.53518,2 0.25565,0 0.46482,-0.9 0.46482,-2 z M 59.790687,79.095952 c -0.98418,-0.98418 -2.75701,0.52669 -2.75701,2.34963 0,1.52647 0.13154,1.52374 1.69048,-0.0352 0.92976,-0.92976 1.4097,-1.97125 1.06653,-2.31442 z m 188.242993,2.57633 c 0,-0.55 -0.47656,-1 -1.05902,-1 -0.58246,0 -0.7809,0.45 -0.44098,1 0.33992,0.55 0.81648,1 1.05902,1 0.24254,0 0.44098,-0.45 0.44098,-1 z m 6,-2.54546 c 0,-2.00175 -4.72905,-6.74003 -5.96471,-5.97635 -1.89801,1.17303 2.00124,7.52181 4.6197,7.52181 0.73975,0 1.34501,-0.69546 1.34501,-1.54546 z m -8,-3.88311 c 0,-1.6015 -2.6451,-4.57143 -4.07143,-4.57143 -1.47233,0 -1.0795,2.70621 0.64286,4.42857 1.95746,1.95746 3.42857,2.01875 3.42857,0.14286 z M 66.033677,74.172282 c 1.01957,-1.22851 0.95124,-1.5 -0.37755,-1.5 -0.89235,0 -1.62245,0.675 -1.62245,1.5 0,0.825 0.1699,1.5 0.37756,1.5 0.20765,0 0.93775,-0.675 1.62244,-1.5 z m 171.770833,-4.6875 c -0.61807,-1.85422 -2.77083,-2.16176 -2.77083,-0.39583 0,0.87083 0.7125,1.58333 1.58333,1.58333 0.87084,0 1.40521,-0.53438 1.1875,-1.1875 z m 7.22917,-2.35796 c 0,-2.21502 -4.54732,-6.45454 -6.92316,-6.45454 -1.48678,0 -1.85237,0.45815 -1.39644,1.75 1.67786,4.75411 8.3196,8.50986 8.3196,4.70454 z m -10,-3.8321 c 0,-1.88465 -2.56096,-3.86 -4.4793,-3.45502 -1.43207,0.30233 -1.43128,0.53725 0.009,2.58258 1.75357,2.49127 4.4703,3.02144 4.4703,0.87244 z m -9.5,-5.62244 c -0.33992,-0.55 -1.06803,-1 -1.61803,-1 -0.55,0 -0.72189,0.45 -0.38197,1 0.33992,0.55 1.06803,1 1.61803,1 0.55,0 0.72189,-0.45 0.38197,-1 z m 7.5,-0.7775 c 0,-1.64086 -3.02952,-4.99696 -4.96841,-5.50399 -3.2354,-0.84607 -3.59722,1.3982 -0.63607,3.94528 2.65715,2.28558 5.60448,3.10529 5.60448,1.55871 z m -11,-4.16348 c 0,-1.17986 -1.95035,-2.442 -2.66667,-1.72569 -0.71631,0.71631 0.54583,2.66667 1.72569,2.66667 0.51754,0 0.94098,-0.42344 0.94098,-0.94098 z m -3.5,-7.05902 c -0.99549,-1.1 -2.93498,-2 -4.30998,-2 -2.43665,0 -2.45414,0.0507 -0.69002,2 0.99549,1.1 2.93498,2 4.30998,2 2.43665,0 2.45414,-0.0507 0.69002,-2 z m -8,-1 c -0.33992,-0.55 -1.06803,-1 -1.61803,-1 -0.55,0 -0.72189,0.45 -0.38197,1 0.33992,0.55 1.06803,1 1.61803,1 0.55,0 0.72189,-0.45 0.38197,-1 z m -1.5,-3.96482 c 0,-1.23626 -3.77478,-3.276921 -5.18937,-2.805393 -1.42018,0.473393 1.8684,3.770213 3.7608,3.770213 0.78571,0 1.42857,-0.43417 1.42857,-0.96482 z M 198.5748,34.738811 c -0.36254,-0.586592 -1.4201,-1.052219 -2.35014,-1.034728 -1.48465,0.02792 -1.45585,0.209693 0.23602,1.489668 2.05508,1.55476 3.20345,1.30764 2.11412,-0.45494 z m -9.04112,-4.066531 c -0.33992,-0.55 -1.29303,-1 -2.11803,-1 -0.825,0 -1.22189,0.45 -0.88197,1 0.33992,0.55 1.29303,1 2.11803,1 0.825,0 1.22189,-0.45 0.88197,-1 z"
       id="path1585" />
  </g>
</svg>
