<?xml version="1.0" encoding="UTF-8" standalone="no"?>
<!-- Created with Inkscape (http://www.inkscape.org/) -->

<svg
   version="1.1"
   id="svg47"
   width="135.4931"
   height="29.469198"
   viewBox="0 0 135.4931 29.469198"
   sodipodi:docname="valhallabass.svg"
   inkscape:version="1.1.1 (c3084ef, 2021-09-22)"
   xmlns:inkscape="http://www.inkscape.org/namespaces/inkscape"
   xmlns:sodipodi="http://sodipodi.sourceforge.net/DTD/sodipodi-0.dtd"
   xmlns="http://www.w3.org/2000/svg"
   xmlns:svg="http://www.w3.org/2000/svg">
  <defs
     id="defs51" />
  <sodipodi:namedview
     id="namedview49"
     pagecolor="#ffffff"
     bordercolor="#666666"
     borderopacity="1.0"
     inkscape:pageshadow="2"
     inkscape:pageopacity="0.0"
     inkscape:pagecheckerboard="0"
     showgrid="false"
     inkscape:zoom="0.88795559"
     inkscape:cx="157.10245"
     inkscape:cy="159.35482"
     inkscape:window-width="1312"
     inkscape:window-height="969"
     inkscape:window-x="0"
     inkscape:window-y="23"
     inkscape:window-maximized="0"
     inkscape:current-layer="g53"
     width="150px"
     fit-margin-top="0"
     fit-margin-left="0"
     fit-margin-right="0"
     fit-margin-bottom="0" />
  <g
     inkscape:groupmode="layer"
     inkscape:label="Image"
     id="g53"
     transform="translate(0.16839,-0.07935)">
    <path
       style="fill:#fff;stroke-width:0.264499"
       d="M 73.44361,29.23127 C 71.8397,28.85189 70.36052,28.0105 69.63823,27.06668 l -0.547,-0.71475 1.37159,-0.50477 1.37159,-0.50477 0.66997,0.64518 c 0.89299,0.85995 2.3181,1.28 4.34265,1.28 1.94853,0 3.00535,-0.30898 3.51264,-1.02699 0.99694,-1.41106 -0.28157,-2.28677 -4.0694,-2.78732 -4.84202,-0.63985 -6.38302,-1.65419 -6.17869,-4.06703 0.0852,-1.0066 0.2879,-1.46341 0.85249,-1.92159 2.66552,-2.16312 8.57389,-2.25776 11.3152,-0.18124 1.23004,0.93174 1.16677,1.20718 -0.38949,1.69547 -0.76778,0.24091 -1.00465,0.21509 -1.75887,-0.19173 -2.14118,-1.15491 -5.59843,-1.1154 -6.62877,0.0757 -1.06954,1.23647 0.12514,2.02561 3.67066,2.42466 3.10883,0.34989 4.48775,0.77579 5.58967,1.72646 1.69706,1.46411 1.47795,3.88046 -0.46931,5.17556 -1.88883,1.25623 -5.93104,1.73205 -8.84955,1.04171 z m 16.79923,0.13777 c -0.50144,-0.10055 -1.33587,-0.35024 -1.85429,-0.55487 -0.9775,-0.38585 -2.85622,-1.85959 -2.85622,-2.24054 0,-0.11964 0.55442,-0.43177 1.23204,-0.69363 l 1.23204,-0.47612 0.85962,0.69707 c 1.09856,0.89082 2.08128,1.16662 4.15681,1.16662 2.84311,0 4.51207,-1.0814 3.71474,-2.40696 -0.42704,-0.70997 -1.75738,-1.17777 -3.90157,-1.37196 -4.83336,-0.43774 -7.27035,-2.19879 -6.538,-4.72455 0.93084,-3.21032 9.65393,-4.08044 12.58734,-1.25559 0.35009,0.33714 0.63654,0.68687 0.63654,0.77718 0,0.0903 -0.52499,0.34352 -1.16665,0.5627 -1.15021,0.39289 -1.18217,0.39052 -2.269,-0.16816 -1.40744,-0.72349 -2.92073,-0.93598 -4.44766,-0.62454 -1.52809,0.31169 -2.1455,0.77951 -2.1455,1.62567 0,0.87606 0.90546,1.2262 4.32783,1.67357 4.45551,0.58243 6.31478,1.78208 6.30378,4.06741 -0.0118,2.44414 -2.36658,3.89186 -6.57729,4.04362 -1.31057,0.0472 -2.79312,0.004 -3.29456,-0.0969 z m -55.46235,-6.7242 v -6.46436 l 5.39428,0.0762 c 6.26559,0.0885 7.02293,0.27619 8.22435,2.03819 0.93094,1.36532 0.75396,2.54319 -0.53329,3.54922 l -0.94217,0.73634 0.71478,0.28977 c 1.72621,0.6998 2.30932,3.09853 1.11418,4.58341 -1.11994,1.39144 -2.43652,1.64478 -8.57785,1.65054 l -5.39428,0.005 z m 9.45142,4.15974 c 2.31322,-0.48674 2.71487,-1.88043 0.79715,-2.76615 -0.79648,-0.36787 -1.53323,-0.45257 -3.94258,-0.45327 l -2.96306,-9.2e-4 v 1.72653 1.72653 l 2.5072,-10e-4 c 1.37896,-6.9e-4 2.99954,-0.10488 3.60129,-0.23149 z m 0.17154,-5.53672 c 1.48609,-0.42799 1.78678,-1.47816 0.65244,-2.27867 -0.58018,-0.40945 -1.06522,-0.46938 -3.79879,-0.46938 h -3.13368 v 1.49633 1.49633 h 2.71535 c 1.49344,0 3.09754,-0.11008 3.56468,-0.24461 z m 5.8761,7.68723 c 0,-0.0974 1.67439,-3.00742 3.72086,-6.46673 l 3.72085,-6.28965 1.81087,0.0671 1.81086,0.0671 3.73733,6.31141 c 2.05554,3.47127 3.73733,6.34594 3.73733,6.38816 0,0.0422 -0.78635,0.0756 -1.74744,0.0742 l -1.74744,-0.003 -0.8749,-1.55132 c -3.11458,-5.52266 -4.86319,-8.34572 -5.069,-8.18368 -0.13037,0.10265 -1.4585,2.31027 -2.95139,4.90583 l -2.71435,4.71918 -1.71679,0.069 c -0.94423,0.038 -1.71679,-0.0106 -1.71679,-0.10805 z M 6.38428,12.48865 C 2.49106,5.42807 -0.16839,0.48297 -0.16839,0.30431 c 0,-0.1269 0.75273,-0.19391 1.73849,-0.15477 l 1.7385,0.069 2.57382,5.02857 2.57381,5.02856 2.60978,-5.02856 2.60978,-5.02857 1.73915,-0.069 c 0.95654,-0.038 1.73915,0.0189 1.73915,0.12645 0,0.10751 -1.55749,3.03915 -3.4611,6.51475 l -3.4611,6.31927 -1.71431,0.0692 c -1.68414,0.068 -1.72169,0.0559 -2.1333,-0.69061 z m 11.39831,0.44871 c 0.0114,-0.15826 1.68905,-3.08473 3.72816,-6.50327 l 3.70746,-6.21551 h 1.79062 1.79062 l 3.75028,6.31028 c 2.06265,3.47066 3.75027,6.4023 3.75027,6.51476 0,0.11246 -0.77231,0.1734 -1.71624,0.13543 L 32.86751,13.11005 29.98042,8.091 C 28.39252,5.33052 26.99986,3.15509 26.88561,3.25671 26.77136,3.35833 25.88472,4.83997 24.91529,6.54924 23.94587,8.2585 22.6729,10.45983 22.08648,11.44107 l -1.06623,1.78409 h -1.62917 c -1.11178,0 -1.62261,-0.0914 -1.60849,-0.28776 z m 20.41208,-6.21551 0.0807,-6.50327 1.5955,-0.0696 1.59549,-0.0696 v 5.42183 5.42182 h 4.4066 4.40659 v 1.15103 1.15102 h -6.08279 -6.0828 z M 52.71078,6.66425 V 0.10343 h 1.51952 1.51951 v 2.76245 2.76245 h 4.245 4.24501 l 0.0856,-2.7049 0.0856,-2.7049 h 1.51951 1.51952 l 0.0807,6.50327 0.0807,6.50327 h -1.67621 -1.6762 V 10.57772 7.93037 H 60.0044 55.74975 v 2.64735 2.64735 h -1.51951 -1.51952 z m 16.18947,6.38816 c 0.0652,-0.095 1.81163,-3.04732 3.88105,-6.56082 l 3.76258,-6.38816 h 1.71032 c 1.56846,0 1.74272,0.0525 2.10108,0.63306 1.08782,1.7623 7.30438,12.30896 7.30438,12.39219 0,0.053 -0.761,0.0964 -1.69111,0.0964 h -1.6911 L 83.13477,11.32589 C 82.50629,10.28134 81.18421,8.00564 80.19681,6.26877 79.20941,4.53191 78.30509,3.18521 78.1872,3.27612 c -0.19007,0.14657 -4.12648,6.83572 -5.34672,9.08569 -0.46647,0.86011 -0.47476,0.86327 -2.26344,0.86327 -0.98739,0 -1.74195,-0.0777 -1.67679,-0.17266 z M 89.48308,6.65222 V 0.07937 l 1.59549,0.0696 1.59549,0.0696 0.0816,5.35225 0.0816,5.35224 h 4.40099 4.401 v 1.15103 1.15102 h -6.07807 -6.07806 z m 14.3547,0.0696 0.0807,-6.50327 1.5955,-0.0696 1.59549,-0.0696 V 5.50118 10.923 h 4.4066 4.40659 v 1.15103 1.15102 h -6.08279 -6.0828 z m 12.77615,6.21551 c 0.0817,-0.15826 1.82537,-3.11063 3.87489,-6.56082 l 3.72639,-6.27306 h 1.72508 1.72507 l 3.77758,6.35886 c 2.07767,3.49737 3.82317,6.44974 3.87888,6.56081 0.0557,0.11108 -0.70071,0.20197 -1.68095,0.20197 h -1.78225 l -2.8776,-5.0585 c -1.58268,-2.78217 -2.94597,-5.05928 -3.02955,-5.06024 -0.0836,-9.7e-4 -0.96152,1.42072 -1.95101,3.15931 -0.98947,1.73858 -2.31402,4.01569 -2.94342,5.06024 l -1.14436,1.89919 h -1.72362 c -1.25549,0 -1.68329,-0.0782 -1.57513,-0.28776 z"
       id="path137" />
  </g>
</svg>
